0
SECTION
2
HEADER
9
$INSUNITS
70
4
9
$ACADVER
1
AC1014
9
$HANDSEED
5
FFFF
0
ENDSEC
0
SECTION
2
TABLES
0
TABLE
2
VPORT
5
8
100
AcDbSymbolTable
0
ENDTAB
0
TABLE
2
LTYPE
5
5
100
AcDbSymbolTable
0
LTYPE
5
14
100
AcDbSymbolTableRecord
100
AcDbLinetypeTableRecord
2
BYBLOCK
70
0
0
LTYPE
5
15
100
AcDbSymbolTableRecord
100
AcDbLinetypeTableRecord
2
BYLAYER
70
0
0
LTYPE
5
16
100
AcDbSymbolTableRecord
100
AcDbLinetypeTableRecord
2
DASHED
70
0
3
Dashed __ __ __ __ __ __ __ __ __ __ __ __ __ _
72
65
73
2
40
0.75
49
0.5
74
0
49
-0.25
74
0
0
ENDTAB
0
TABLE
2
LAYER
5
2
100
AcDbSymbolTable
70
3
0
LAYER
5
50
100
AcDbSymbolTableRecord
100
AcDbLayerTableRecord
2
1
70
0
62
7
6
DASHED
0
LAYER
5
51
100
AcDbSymbolTableRecord
100
AcDbLayerTableRecord
2
0
70
0
62
7
6
CONTINUOUS
0
ENDTAB
0
TABLE
2
STYLE
5
3
100
AcDbSymbolTable
70
1
0
STYLE
5
11
100
AcDbSymbolTableRecord
100
AcDbTextStyleTableRecord
2
STANDARD
70
0
0
ENDTAB
0
TABLE
2
VIEW
5
6
100
AcDbSymbolTable
70
0
0
ENDTAB
0
TABLE
2
UCS
5
7
100
AcDbSymbolTable
70
0
0
ENDTAB
0
TABLE
2
APPID
5
9
100
AcDbSymbolTable
70
2
0
APPID
5
12
100
AcDbSymbolTableRecord
100
AcDbRegAppTableRecord
2
ACAD
70
0
0
ENDTAB
0
TABLE
2
DIMSTYLE
5
A
100
AcDbSymbolTable
70
1
0
ENDTAB
0
TABLE
2
BLOCK_RECORD
5
1
100
AcDbSymbolTable
70
1
0
BLOCK_RECORD
5
1F
100
AcDbSymbolTableRecord
100
AcDbBlockTableRecord
2
*MODEL_SPACE
0
BLOCK_RECORD
5
1B
100
AcDbSymbolTableRecord
100
AcDbBlockTableRecord
2
*PAPER_SPACE
0
ENDTAB
0
ENDSEC
0
SECTION
2
BLOCKS
0
BLOCK
5
20
100
AcDbEntity
100
AcDbBlockBegin
2
*MODEL_SPACE
0
ENDBLK
5
21
100
AcDbEntity
100
AcDbBlockEnd
0
BLOCK
5
1C
100
AcDbEntity
100
AcDbBlockBegin
2
*PAPER_SPACE
0
ENDBLK
5
1D
100
AcDbEntity
100
AcDbBlockEnd
0
ENDSEC
0
SECTION
2
ENTITIES
0
CIRCLE
5
100
100
AcDbEntity
8
0
100
AcDbCircle
10
-77.999999999999915
20
70.999999999999915
30
0
40
2.0999999999999996
210
0
220
0
230
1
0
CIRCLE
5
101
100
AcDbEntity
8
0
100
AcDbCircle
10
2.1003255978629095e-14
20
135.00000000000011
30
0
40
5
210
0
220
0
230
1
0
CIRCLE
5
102
100
AcDbEntity
8
0
100
AcDbCircle
10
-77.999999999999915
20
100.99999999999991
30
0
40
2.0999999999999996
210
0
220
0
230
1
0
CIRCLE
5
103
100
AcDbEntity
8
0
100
AcDbCircle
10
6.0000000000000053
20
76.500000381882359
30
0
40
1.4999999999999991
210
0
220
0
230
1
0
CIRCLE
5
104
100
AcDbEntity
8
0
100
AcDbCircle
10
52.999999999999886
20
100.99999999999991
30
0
40
2.0999999999999996
210
0
220
0
230
1
0
LWPOLYLINE
5
105
100
AcDbEntity
8
0
100
AcDbPolyline
90
4
70
1
43
0.0
10
8.0000001193383845
20
81.000000372470353
42
0.99999999999999989
10
7.9999998806616297
20
91.000000391294336
10
-8.0000001193383614
20
91.000000009411522
42
0.99999999999999989
10
-7.9999998806616199
20
80.99999999058754
0
LWPOLYLINE
5
106
100
AcDbEntity
8
0
100
AcDbPolyline
90
4
70
1
43
0.0
10
-116.44999999999993
20
141.50000000000006
42
0.99999999999999989
10
-119.54999999999991
20
141.50000000000009
10
-119.54999999999991
20
131.50000000000006
42
0.99999999999999989
10
-116.44999999999993
20
131.50000000000006
0
LWPOLYLINE
5
107
100
AcDbEntity
8
0
100
AcDbPolyline
90
4
70
1
43
0.0
10
91.999999999999829
20
49.999999238403888
42
0.99999999999999989
10
91.999999999999872
20
53.000000761596368
10
86.999999999999943
20
53.000000761596304
42
0.99999999999999989
10
86.999999999999815
20
49.999999238403944
0
CIRCLE
5
108
100
AcDbEntity
8
0
100
AcDbCircle
10
112.5
20
146.00000000000014
30
0
40
1.6000000000000014
210
0
220
0
230
1
0
LWPOLYLINE
5
109
100
AcDbEntity
8
0
100
AcDbPolyline
90
4
70
1
43
0.0
10
74.999999999999986
20
147.5500000000001
42
0.99999999999999989
10
74.999999999999986
20
144.4500000000001
10
105
20
144.45000000000016
42
0.99999999999999989
10
105
20
147.55000000000013
0
CIRCLE
5
110
100
AcDbEntity
8
0
100
AcDbCircle
10
77.999999999999915
20
100.99999999999991
30
0
40
2.0999999999999908
210
0
220
0
230
1
0
CIRCLE
5
111
100
AcDbEntity
8
0
100
AcDbCircle
10
112.00000000115381
20
140.00000000115369
30
0
40
2.1000000000000085
210
0
220
0
230
1
0
CIRCLE
5
112
100
AcDbEntity
8
0
100
AcDbCircle
10
22.5
20
145.99999999999994
30
0
40
1.6000000000000014
210
0
220
0
230
1
0
LWPOLYLINE
5
113
100
AcDbEntity
8
0
100
AcDbPolyline
90
4
70
1
43
0.0
10
-15.000000000000002
20
147.54999999999993
42
0.99999999999999989
10
-14.999999999999998
20
144.44999999999996
10
15.000000000000002
20
144.44999999999993
42
0.99999999999999989
10
14.999999999999998
20
147.54999999999995
0
LWPOLYLINE
5
114
100
AcDbEntity
8
0
100
AcDbPolyline
90
4
70
1
43
0.0
10
30
20
147.54999999999993
42
0.99999999999999989
10
30.000000000000018
20
144.44999999999996
10
60.000000000000107
20
144.45000000000002
42
0.99999999999999989
10
60.000000000000071
20
147.54999999999993
0
LWPOLYLINE
5
115
100
AcDbEntity
8
0
100
AcDbPolyline
90
4
70
1
43
0.0
10
-74.999999999999986
20
144.45000000000013
42
0.99999999999999989
10
-75
20
147.55000000000013
10
-104.99999999999997
20
147.55000000000015
42
0.99999999999999989
10
-104.99999999999997
20
144.45000000000016
0
CIRCLE
5
116
100
AcDbEntity
8
0
100
AcDbCircle
10
-112.49999999999997
20
146.00000000000017
30
0
40
1.6000000000000014
210
0
220
0
230
1
0
CIRCLE
5
117
100
AcDbEntity
8
0
100
AcDbCircle
10
-67.500000000000085
20
146
30
0
40
1.5999999999999925
210
0
220
0
230
1
0
CIRCLE
5
118
100
AcDbEntity
8
0
100
AcDbCircle
10
-5.9999999999999831
20
76.500000381882401
30
0
40
1.4999999999999991
210
0
220
0
230
1
0
CIRCLE
5
119
100
AcDbEntity
8
0
100
AcDbCircle
10
-52.999999999999886
20
70.999999999999901
30
0
40
2.0999999999999996
210
0
220
0
230
1
0
CIRCLE
5
120
100
AcDbEntity
8
0
100
AcDbCircle
10
35.499999999999886
20
52.499999999999893
30
0
40
1.4999999999999991
210
0
220
0
230
1
0
CIRCLE
5
121
100
AcDbEntity
8
0
100
AcDbCircle
10
-45.499999999999886
20
52.499999999999901
30
0
40
1.4999999999999947
210
0
220
0
230
1
0
CIRCLE
5
122
100
AcDbEntity
8
0
100
AcDbCircle
10
15.999999999999998
20
54.000000000000135
30
0
40
2.9000000000000004
210
0
220
0
230
1
0
CIRCLE
5
123
100
AcDbEntity
8
0
100
AcDbCircle
10
67.500000000000099
20
146
30
0
40
1.5999999999999925
210
0
220
0
230
1
0
LWPOLYLINE
5
124
100
AcDbEntity
8
0
100
AcDbPolyline
90
4
70
1
43
0.0
10
-60.000000000000064
20
147.54999999999993
42
0.99999999999999989
10
-60.000000000000043
20
144.45000000000016
10
-29.999999999999982
20
144.44999999999996
42
0.99999999999999989
10
-29.999999999999982
20
147.54999999999993
0
CIRCLE
5
125
100
AcDbEntity
8
0
100
AcDbCircle
10
-15.999999999999998
20
54.000000000000135
30
0
40
2.9000000000000004
210
0
220
0
230
1
0
CIRCLE
5
126
100
AcDbEntity
8
0
100
AcDbCircle
10
52.999999999999886
20
70.999999999999901
30
0
40
2.0999999999999996
210
0
220
0
230
1
0
CIRCLE
5
127
100
AcDbEntity
8
0
100
AcDbCircle
10
45.499999999999886
20
52.499999999999893
30
0
40
1.4999999999999947
210
0
220
0
230
1
0
CIRCLE
5
128
100
AcDbEntity
8
0
100
AcDbCircle
10
-35.499999999999872
20
52.499999999999893
30
0
40
1.4999999999999991
210
0
220
0
230
1
0
CIRCLE
5
129
100
AcDbEntity
8
0
100
AcDbCircle
10
-40.499999999999886
20
60.999999999999901
30
0
40
4.9999999999999956
210
0
220
0
230
1
0
CIRCLE
5
130
100
AcDbEntity
8
0
100
AcDbCircle
10
-52.999999999999886
20
100.99999999999991
30
0
40
2.0999999999999996
210
0
220
0
230
1
0
CIRCLE
5
131
100
AcDbEntity
8
0
100
AcDbCircle
10
-14.000714267493652
20
100.99928573250638
30
0
40
1.3000000000000034
210
0
220
0
230
1
0
CIRCLE
5
132
100
AcDbEntity
8
0
100
AcDbCircle
10
-22.499999999999982
20
145.99999999999994
30
0
40
1.6000000000000014
210
0
220
0
230
1
0
CIRCLE
5
133
100
AcDbEntity
8
0
100
AcDbCircle
10
40.499999999999886
20
60.999999999999901
30
0
40
5
210
0
220
0
230
1
0
CIRCLE
5
134
100
AcDbEntity
8
0
100
AcDbCircle
10
77.999999999999915
20
70.999999999999901
30
0
40
2.0999999999999908
210
0
220
0
230
1
0
LWPOLYLINE
5
135
100
AcDbEntity
8
0
100
AcDbPolyline
90
4
70
1
43
0.0
10
-86.999999999999815
20
49.999999238403802
42
0.99999999999999989
10
-86.999999999999858
20
53.000000761597114
10
-91.999999999999858
20
53.000000761596091
42
0.99999999999999989
10
-91.999999999999858
20
49.999999238404214
0
LWPOLYLINE
5
136
100
AcDbEntity
8
0
100
AcDbPolyline
90
4
70
1
43
0.0
10
119.54999999999991
20
141.50000000000003
42
0.99999999999999989
10
116.44999999999993
20
141.50000000000003
10
116.44999999999993
20
131.50000000000003
42
0.99999999999999989
10
119.54999999999991
20
131.50000000000003
0
CIRCLE
5
137
100
AcDbEntity
8
0
100
AcDbCircle
10
14.000714267493668
20
129.00071426749361
30
0
40
1.2999999999999989
210
0
220
0
230
1
0
CIRCLE
5
138
100
AcDbEntity
8
0
100
AcDbCircle
10
-85.999999999999943
20
58.500000000000142
30
0
40
2.0999999999999908
210
0
220
0
230
1
0
CIRCLE
5
139
100
AcDbEntity
8
0
100
AcDbCircle
10
85.999999999999943
20
58.500000000000128
30
0
40
2.0999999999999908
210
0
220
0
230
1
0
CIRCLE
5
140
100
AcDbEntity
8
0
100
AcDbCircle
10
-85.999999999999801
20
113.50000000000091
30
0
40
2.0999999999999908
210
0
220
0
230
1
0
CIRCLE
5
141
100
AcDbEntity
8
0
100
AcDbCircle
10
-90.999999999999886
20
86.000000000000142
30
0
40
2.0999999999999908
210
0
220
0
230
1
0
CIRCLE
5
142
100
AcDbEntity
8
0
100
AcDbCircle
10
-39.999999999999972
20
140.00000000000011
30
0
40
2.1000000000000041
210
0
220
0
230
1
0
CIRCLE
5
143
100
AcDbEntity
8
0
100
AcDbCircle
10
90.999999999999929
20
86.000000000000114
30
0
40
2.0999999999999908
210
0
220
0
230
1
0
CIRCLE
5
144
100
AcDbEntity
8
0
100
AcDbCircle
10
86.000000000000071
20
113.50000000000009
30
0
40
2.0999999999999908
210
0
220
0
230
1
0
CIRCLE
5
145
100
AcDbEntity
8
0
100
AcDbCircle
10
39.999999999999993
20
140.00000000000011
30
0
40
2.0999999999999996
210
0
220
0
230
1
0
CIRCLE
5
146
100
AcDbEntity
8
0
100
AcDbCircle
10
14.000714267493667
20
100.99928573250638
30
0
40
1.3000000000000034
210
0
220
0
230
1
0
CIRCLE
5
147
100
AcDbEntity
8
0
100
AcDbCircle
10
-14.000714267493652
20
129.00071426749361
30
0
40
1.2999999999999989
210
0
220
0
230
1
0
CIRCLE
5
148
100
AcDbEntity
8
0
100
AcDbCircle
10
20.859650045003061
20
94.140349954996793
30
0
40
1.6000000000000014
210
0
220
0
230
1
0
CIRCLE
5
149
100
AcDbEntity
8
0
100
AcDbCircle
10
-20.859650045003168
20
94.140349954996907
30
0
40
1.6000000000000014
210
0
220
0
230
1
0
CIRCLE
5
150
100
AcDbEntity
8
0
100
AcDbCircle
10
-20.85965004500305
20
135.85965004500312
30
0
40
1.6000000000000014
210
0
220
0
230
1
0
CIRCLE
5
151
100
AcDbEntity
8
0
100
AcDbCircle
10
20.859650045003182
20
135.85965004500304
30
0
40
1.6000000000000014
210
0
220
0
230
1
0
CIRCLE
5
152
100
AcDbEntity
8
0
100
AcDbCircle
10
-112.00000000115381
20
140.00000000115381
30
0
40
2.1000000000000085
210
0
220
0
230
1
0
LWPOLYLINE
5
153
100
AcDbEntity
8
0
100
AcDbPolyline
90
16
70
1
43
0.0
10
-96.000000000000057
20
123.49999999999994
10
-95.999999999999943
20
51.500000000551779
42
0.41421356237309503
10
-92.999999999448306
20
48.500000000000142
10
93.000000002910213
20
48.500000000000142
42
0.41421356237309592
10
95.999999999999829
20
51.499999997089745
10
95.999999999999943
20
123.50000000000007
42
-0.41421356237309337
10
98.999999999999929
20
126.50000000000007
10
116.99999999899532
20
126.50000000000004
42
0.41421356237309398
10
122.0000000000001
20
131.50000000100482
10
122.0000000000001
20
140.00000000115369
42
0.41421356237309503
10
112.00000000115381
20
150
10
-112.00000000113313
20
149.99999999999997
42
0.41421356237370011
10
-121.99999999999997
20
140.00000000115384
10
-122.00000000000017
20
131.50000000100462
42
0.41421356237310125
10
-116.99999999899531
20
126.49999999999986
10
-98.999999999999901
20
126.49999999999989
42
-0.41421356237307599
0
CIRCLE
5
154
100
AcDbEntity
8
0
100
AcDbCircle
10
35.499999999999886
20
-52.499999999999893
30
0
40
1.4999999999999991
210
0
220
0
230
1
0
CIRCLE
5
155
100
AcDbEntity
8
0
100
AcDbCircle
10
-40.499999999999886
20
33.000000000000128
30
0
40
5
210
0
220
0
230
1
0
CIRCLE
5
156
100
AcDbEntity
8
0
100
AcDbCircle
10
45.499999999999886
20
-52.499999999999893
30
0
40
1.4999999999999947
210
0
220
0
230
1
0
CIRCLE
5
157
100
AcDbEntity
8
0
100
AcDbCircle
10
-35.499999999999893
20
-52.499999999999893
30
0
40
1.4999999999999991
210
0
220
0
230
1
0
CIRCLE
5
158
100
AcDbEntity
8
0
100
AcDbCircle
10
-45.499999999999886
20
-52.499999999999886
30
0
40
1.4999999999999947
210
0
220
0
230
1
0
CIRCLE
5
159
100
AcDbEntity
8
0
100
AcDbCircle
10
-39.000000000140837
20
-76.999999999870198
30
0
40
1.6000000000000014
210
0
220
0
230
1
0
CIRCLE
5
160
100
AcDbEntity
8
0
100
AcDbCircle
10
-39.000000000140837
20
-125.99999999986771
30
0
40
1.6000000000000014
210
0
220
0
230
1
0
CIRCLE
5
161
100
AcDbEntity
8
0
100
AcDbCircle
10
18.999999999993197
20
-77.000000000004178
30
0
40
1.6000000000000125
210
0
220
0
230
1
0
CIRCLE
5
162
100
AcDbEntity
8
0
100
AcDbCircle
10
18.999999999993197
20
-126.00000000000172
30
0
40
1.6000000000000125
210
0
220
0
230
1
0
CIRCLE
5
163
100
AcDbEntity
8
0
100
AcDbCircle
10
-19.000000000004611
20
-77.000000000019554
30
0
40
1.6000000000000125
210
0
220
0
230
1
0
CIRCLE
5
164
100
AcDbEntity
8
0
100
AcDbCircle
10
39.000000000007418
20
-76.9999999999973
30
0
40
1.6000000000000014
210
0
220
0
230
1
0
CIRCLE
5
165
100
AcDbEntity
8
0
100
AcDbCircle
10
39.00000000001608
20
-125.99999999999486
30
0
40
1.6000000000000014
210
0
220
0
230
1
0
CIRCLE
5
166
100
AcDbEntity
8
0
100
AcDbCircle
10
-19.000000000049326
20
-125.99999999993975
30
0
40
1.6000000000000103
210
0
220
0
230
1
0
CIRCLE
5
167
100
AcDbEntity
8
0
100
AcDbCircle
10
24.50000000000248
20
-62.499999999992284
30
0
40
1.6000000000000014
210
0
220
0
230
1
0
CIRCLE
5
168
100
AcDbEntity
8
0
100
AcDbCircle
10
24.499999999995481
20
-82.500000000006509
30
0
40
1.6000000000000103
210
0
220
0
230
1
0
CIRCLE
5
169
100
AcDbEntity
8
0
100
AcDbCircle
10
24.499999999991921
20
-120.4999999999923
30
0
40
1.6000000000000103
210
0
220
0
230
1
0
CIRCLE
5
170
100
AcDbEntity
8
0
100
AcDbCircle
10
24.499999999995179
20
-140.50000000000651
30
0
40
1.6000000000000014
210
0
220
0
230
1
0
CIRCLE
5
171
100
AcDbEntity
8
0
100
AcDbCircle
10
-24.500000000002373
20
-140.50000000000625
30
0
40
1.6000000000000014
210
0
220
0
230
1
0
CIRCLE
5
172
100
AcDbEntity
8
0
100
AcDbCircle
10
-24.500000000005624
20
-120.49999999998342
30
0
40
1.6000000000000103
210
0
220
0
230
1
0
CIRCLE
5
173
100
AcDbEntity
8
0
100
AcDbCircle
10
-24.500000000002053
20
-82.500000000006224
30
0
40
1.6000000000000103
210
0
220
0
230
1
0
CIRCLE
5
174
100
AcDbEntity
8
0
100
AcDbCircle
10
-24.499999999995055
20
-62.499999999983366
30
0
40
1.6000000000000014
210
0
220
0
230
1
0
CIRCLE
5
175
100
AcDbEntity
8
0
100
AcDbCircle
10
-5.0000000000000036
20
-61.500000000004185
30
0
40
1.4999999999999987
210
0
220
0
230
1
0
CIRCLE
5
176
100
AcDbEntity
8
0
100
AcDbCircle
10
4.9999999999999964
20
-61.500000000004185
30
0
40
1.499999999999998
210
0
220
0
230
1
0
CIRCLE
5
177
100
AcDbEntity
8
0
100
AcDbCircle
10
-5.0000000000000018
20
-35
30
0
40
1.4999999999999987
210
0
220
0
230
1
0
CIRCLE
5
178
100
AcDbEntity
8
0
100
AcDbCircle
10
4.9999999999999982
20
-35
30
0
40
1.4999999999999991
210
0
220
0
230
1
0
CIRCLE
5
179
100
AcDbEntity
8
0
100
AcDbCircle
10
4.9999999999999982
20
35
30
0
40
1.4999999999999991
210
0
220
0
230
1
0
CIRCLE
5
180
100
AcDbEntity
8
0
100
AcDbCircle
10
-5.0000000000000018
20
35
30
0
40
1.4999999999999987
210
0
220
0
230
1
0
CIRCLE
5
181
100
AcDbEntity
8
0
100
AcDbCircle
10
35
20
4.9999999999999956
30
0
40
1.4999999999999991
210
0
220
0
230
1
0
CIRCLE
5
182
100
AcDbEntity
8
0
100
AcDbCircle
10
35.000000000000007
20
-5.0000000000000089
30
0
40
1.4999999999999991
210
0
220
0
230
1
0
CIRCLE
5
183
100
AcDbEntity
8
0
100
AcDbCircle
10
-35
20
5
30
0
40
1.4999999999999991
210
0
220
0
230
1
0
CIRCLE
5
184
100
AcDbEntity
8
0
100
AcDbCircle
10
-35
20
-5
30
0
40
1.4999999999999991
210
0
220
0
230
1
0
CIRCLE
5
185
100
AcDbEntity
8
0
100
AcDbCircle
10
-112.49999999999997
20
-146.00000000000017
30
0
40
1.6000000000000014
210
0
220
0
230
1
0
LWPOLYLINE
5
186
100
AcDbEntity
8
0
100
AcDbPolyline
90
4
70
1
43
0.0
10
-74.999999999999972
20
-147.55000000000013
42
0.99999999999999989
10
-75.000000000000014
20
-144.45000000000013
10
-105
20
-144.45000000000016
42
0.99999999999999989
10
-104.99999999999993
20
-147.55000000000015
0
LWPOLYLINE
5
187
100
AcDbEntity
8
0
100
AcDbPolyline
90
4
70
1
43
0.0
10
-29.999999999999982
20
-147.54999999999993
42
0.99999999999999989
10
-30
20
-144.44999999999996
10
-60.000000000000085
20
-144.45000000000002
42
0.99999999999999989
10
-60.000000000000071
20
-147.54999999999993
0
CIRCLE
5
188
100
AcDbEntity
8
0
100
AcDbCircle
10
-67.500000000000085
20
-146
30
0
40
1.5999999999999925
210
0
220
0
230
1
0
LWPOLYLINE
5
189
100
AcDbEntity
8
0
100
AcDbPolyline
90
4
70
1
43
0.0
10
-14.999999999999998
20
-144.44999999999996
42
0.99999999999999989
10
-15.000000000000002
20
-147.54999999999993
10
14.999999999999998
20
-147.54999999999995
42
0.99999999999999989
10
15.000000000000002
20
-144.44999999999993
0
CIRCLE
5
190
100
AcDbEntity
8
0
100
AcDbCircle
10
-22.499999999999982
20
-145.99999999999994
30
0
40
1.6000000000000014
210
0
220
0
230
1
0
LWPOLYLINE
5
191
100
AcDbEntity
8
0
100
AcDbPolyline
90
4
70
1
43
0.0
10
30
20
-144.44999999999996
42
0.99999999999999989
10
30.000000000000018
20
-147.54999999999993
10
60.000000000000078
20
-147.54999999999993
42
0.99999999999999989
10
60.000000000000064
20
-144.4500000000001
0
LWPOLYLINE
5
192
100
AcDbEntity
8
0
100
AcDbPolyline
90
4
70
1
43
0.0
10
116.44999999999993
20
-141.50000000000003
42
0.99999999999999989
10
119.54999999999991
20
-141.50000000000003
10
119.54999999999991
20
-131.50000000000003
42
0.99999999999999989
10
116.44999999999993
20
-131.50000000000003
0
CIRCLE
5
193
100
AcDbEntity
8
0
100
AcDbCircle
10
22.5
20
-145.99999999999994
30
0
40
1.6000000000000014
210
0
220
0
230
1
0
LWPOLYLINE
5
194
100
AcDbEntity
8
0
100
AcDbPolyline
90
4
70
1
43
0.0
10
75
20
-144.4500000000001
42
0.99999999999999989
10
74.999999999999986
20
-147.5500000000001
10
105
20
-147.55000000000013
42
0.99999999999999989
10
105
20
-144.45000000000016
0
CIRCLE
5
195
100
AcDbEntity
8
0
100
AcDbCircle
10
-30.500000000000107
20
30.50000000000011
30
0
40
2.0999999999999996
210
0
220
0
230
1
0
CIRCLE
5
196
100
AcDbEntity
8
0
100
AcDbCircle
10
67.500000000000099
20
-146
30
0
40
1.5999999999999925
210
0
220
0
230
1
0
CIRCLE
5
197
100
AcDbEntity
8
0
100
AcDbCircle
10
-111.99999999999991
20
-35.499999999999972
30
0
40
2.1000000000000085
210
0
220
0
230
1
0
CIRCLE
5
198
100
AcDbEntity
8
0
100
AcDbCircle
10
112.5
20
-146.00000000000014
30
0
40
1.6000000000000014
210
0
220
0
230
1
0
LWPOLYLINE
5
199
100
AcDbEntity
8
0
100
AcDbPolyline
90
4
70
1
43
0.0
10
-116.44999999999993
20
-131.50000000000006
42
0.99999999999999989
10
-119.54999999999991
20
-131.50000000000003
10
-119.54999999999991
20
-141.50000000000006
42
0.99999999999999989
10
-116.44999999999993
20
-141.50000000000006
0
CIRCLE
5
200
100
AcDbEntity
8
0
100
AcDbCircle
10
-85.999999999999801
20
-113.50000000000091
30
0
40
2.0999999999999908
210
0
220
0
230
1
0
LWPOLYLINE
5
201
100
AcDbEntity
8
0
100
AcDbPolyline
90
4
70
1
43
0.0
10
-101.99999999999967
20
15.000000000000009
10
-101.99999999999994
20
-14.999999999999979
42
-0.99999999999999989
10
-105.99999999999982
20
-15
10
-106.00000000000009
20
14.999999999999996
42
-0.99999999999999989
0
CIRCLE
5
202
100
AcDbEntity
8
0
100
AcDbCircle
10
-30.500000000000107
20
-30.50000000000011
30
0
40
2.0999999999999996
210
0
220
0
230
1
0
CIRCLE
5
203
100
AcDbEntity
8
0
100
AcDbCircle
10
-112.0000000000001
20
35.500000001119439
30
0
40
2.1000000000000085
210
0
220
0
230
1
0
LWPOLYLINE
5
204
100
AcDbEntity
8
0
100
AcDbPolyline
90
4
70
1
43
0.0
10
-57.99999999999973
20
15.000000000000018
42
0.99999999999999989
10
-62.000000000000128
20
15.000000000000009
10
-61.999999999999922
20
-14.999999999999979
42
0.99999999999999989
10
-57.999999999999616
20
-14.999999999999979
0
CIRCLE
5
205
100
AcDbEntity
8
0
100
AcDbCircle
10
90.999999999999929
20
-86.000000000000114
30
0
40
2.0999999999999908
210
0
220
0
230
1
0
LWPOLYLINE
5
206
100
AcDbEntity
8
0
100
AcDbPolyline
90
4
70
1
43
0.0
10
106.00000000000007
20
14.999999999999989
42
0.99999999999999989
10
101.99999999999969
20
15.000000000000009
10
101.99999999999991
20
-15
42
0.99999999999999989
10
105.99999999999983
20
-15.00000000000002
0
CIRCLE
5
207
100
AcDbEntity
8
0
100
AcDbCircle
10
30.500000000000107
20
30.500000000000107
30
0
40
2.0999999999999996
210
0
220
0
230
1
0
CIRCLE
5
208
100
AcDbEntity
8
0
100
AcDbCircle
10
-39.999999999999972
20
-140.00000000000011
30
0
40
2.1000000000000041
210
0
220
0
230
1
0
CIRCLE
5
209
100
AcDbEntity
8
0
100
AcDbCircle
10
30.500000000000107
20
-30.500000000000107
30
0
40
2.0999999999999996
210
0
220
0
230
1
0
CIRCLE
5
210
100
AcDbEntity
8
0
100
AcDbCircle
10
112.0000000000001
20
35.500000001119425
30
0
40
2.1000000000000085
210
0
220
0
230
1
0
CIRCLE
5
211
100
AcDbEntity
8
0
100
AcDbCircle
10
86.000000000000071
20
-113.50000000000009
30
0
40
2.0999999999999908
210
0
220
0
230
1
0
CIRCLE
5
212
100
AcDbEntity
8
0
100
AcDbCircle
10
39.999999999999993
20
-140.00000000000011
30
0
40
2.0999999999999996
210
0
220
0
230
1
0
LWPOLYLINE
5
213
100
AcDbEntity
8
0
100
AcDbPolyline
90
4
70
1
43
0.0
10
62.000000000000128
20
15.000000000000011
42
0.99999999999999989
10
57.99999999999973
20
15.000000000000004
10
57.999999999999616
20
-14.999999999999986
42
0.99999999999999989
10
61.999999999999922
20
-14.99999999999998
0
CIRCLE
5
214
100
AcDbEntity
8
0
100
AcDbCircle
10
111.99999999999991
20
-35.499999999999986
30
0
40
2.1000000000000085
210
0
220
0
230
1
0
CIRCLE
5
215
100
AcDbEntity
8
0
100
AcDbCircle
10
-90.999999999999886
20
-86.000000000000142
30
0
40
2.0999999999999908
210
0
220
0
230
1
0
CIRCLE
5
216
100
AcDbEntity
8
0
100
AcDbCircle
10
85.999999999999943
20
-58.500000000000128
30
0
40
2.0999999999999908
210
0
220
0
230
1
0
CIRCLE
5
217
100
AcDbEntity
8
0
100
AcDbCircle
10
-85.999999999999943
20
-58.500000000000142
30
0
40
2.0999999999999908
210
0
220
0
230
1
0
CIRCLE
5
218
100
AcDbEntity
8
0
100
AcDbCircle
10
-45.499999999999886
20
41.499999999999908
30
0
40
1.4999999999999947
210
0
220
0
230
1
0
CIRCLE
5
219
100
AcDbEntity
8
0
100
AcDbCircle
10
-35.499999999999872
20
41.499999999999901
30
0
40
1.4999999999999991
210
0
220
0
230
1
0
CIRCLE
5
220
100
AcDbEntity
8
0
100
AcDbCircle
10
-52.999999999999886
20
-100.99999999999991
30
0
40
2.0999999999999996
210
0
220
0
230
1
0
LWPOLYLINE
5
221
100
AcDbEntity
8
0
100
AcDbPolyline
90
4
70
1
43
0.0
10
-7.9999998806616146
20
-80.99999999058754
42
0.99999999999999989
10
-8.0000001193383579
20
-91.000000009411636
10
7.9999998806616359
20
-91.000000391294336
42
0.99999999999999989
10
8.000000119338381
20
-81.000000372470353
0
CIRCLE
5
222
100
AcDbEntity
8
0
100
AcDbCircle
10
-117.99999999999994
20
-39.999999999999815
30
0
40
1.6000000000000014
210
0
220
0
230
1
0
CIRCLE
5
223
100
AcDbEntity
8
0
100
AcDbCircle
10
77.999999999999915
20
-100.99999999999991
30
0
40
2.0999999999999908
210
0
220
0
230
1
0
CIRCLE
5
224
100
AcDbEntity
8
0
100
AcDbCircle
10
22.5
20
22.5
30
0
40
1.5500000000000025
210
0
220
0
230
1
0
CIRCLE
5
225
100
AcDbEntity
8
0
100
AcDbCircle
10
-117.99999999999994
20
39.999999999999851
30
0
40
1.6000000000000014
210
0
220
0
230
1
0
CIRCLE
5
226
100
AcDbEntity
8
0
100
AcDbCircle
10
-15.249999999999996
20
15.250000000000002
30
0
40
1.5500000000000003
210
0
220
0
230
1
0
CIRCLE
5
227
100
AcDbEntity
8
0
100
AcDbCircle
10
-22.5
20
-22.500000000000004
30
0
40
1.5500000000000025
210
0
220
0
230
1
0
LWPOLYLINE
5
228
100
AcDbEntity
8
0
100
AcDbPolyline
90
4
70
1
43
0.0
10
119.54999999999991
20
32.499999999999837
42
0.99999999999999989
10
116.44999999999993
20
32.499999999999851
10
116.44999999999993
20
7.4999999999998357
42
0.99999999999999989
10
119.54999999999991
20
7.4999999999998401
0
CIRCLE
5
229
100
AcDbEntity
8
0
100
AcDbCircle
10
117.99999999999994
20
39.999999999999837
30
0
40
1.6000000000000014
210
0
220
0
230
1
0
CIRCLE
5
230
100
AcDbEntity
8
0
100
AcDbCircle
10
117.99999999999991
20
0
30
0
40
1.6000000000000014
210
0
220
0
230
1
0
CIRCLE
5
231
100
AcDbEntity
8
0
100
AcDbCircle
10
52.999999999999886
20
-100.99999999999991
30
0
40
2.0999999999999996
210
0
220
0
230
1
0
CIRCLE
5
232
100
AcDbEntity
8
0
100
AcDbCircle
10
15.250000000000002
20
-15.250000000000002
30
0
40
1.5500000000000003
210
0
220
0
230
1
0
LWPOLYLINE
5
233
100
AcDbEntity
8
0
100
AcDbPolyline
90
4
70
1
43
0.0
10
91.999999999999858
20
41.000000002538883
42
0.99999999999999989
10
91.999999999999858
20
43.999999997461423
10
86.999999999999858
20
43.999999997461423
42
0.99999999999999989
10
86.999999999999872
20
41.00000000253889
0
LWPOLYLINE
5
234
100
AcDbEntity
8
0
100
AcDbPolyline
90
4
70
1
43
0.0
10
-86.999999999999858
20
41.000000002538897
42
0.99999999999999989
10
-86.999999999999858
20
43.999999997461686
10
-91.999999999999858
20
43.999999997461437
42
0.99999999999999989
10
-91.999999999999858
20
41.00000000253889
0
CIRCLE
5
235
100
AcDbEntity
8
0
100
AcDbCircle
10
-77.999999999999915
20
-100.99999999999991
30
0
40
2.0999999999999996
210
0
220
0
230
1
0
CIRCLE
5
236
100
AcDbEntity
8
0
100
AcDbCircle
10
35.499999999999886
20
41.499999999999901
30
0
40
1.4999999999999991
210
0
220
0
230
1
0
CIRCLE
5
237
100
AcDbEntity
8
0
100
AcDbCircle
10
-20.5
20
39.500000000000142
30
0
40
2.7499999999999991
210
0
220
0
230
1
0
CIRCLE
5
238
100
AcDbEntity
8
0
100
AcDbCircle
10
20.5
20
39.500000000000142
30
0
40
2.7499999999999991
210
0
220
0
230
1
0
CIRCLE
5
239
100
AcDbEntity
8
0
100
AcDbCircle
10
45.499999999999886
20
41.499999999999901
30
0
40
1.4999999999999947
210
0
220
0
230
1
0
CIRCLE
5
240
100
AcDbEntity
8
0
100
AcDbCircle
10
-112.00000000115381
20
-140.00000000115381
30
0
40
2.1000000000000085
210
0
220
0
230
1
0
CIRCLE
5
241
100
AcDbEntity
8
0
100
AcDbCircle
10
-15.249999999999996
20
-15.250000000000002
30
0
40
1.5500000000000003
210
0
220
0
230
1
0
CIRCLE
5
242
100
AcDbEntity
8
0
100
AcDbCircle
10
22.5
20
-22.5
30
0
40
1.5500000000000025
210
0
220
0
230
1
0
CIRCLE
5
243
100
AcDbEntity
8
0
100
AcDbCircle
10
-117.99999999999991
20
1.4447434835877652e-14
30
0
40
1.6000000000000014
210
0
220
0
230
1
0
LWPOLYLINE
5
244
100
AcDbEntity
8
0
100
AcDbPolyline
90
4
70
1
43
0.0
10
-116.44999999999993
20
-7.4999999999998224
42
0.99999999999999989
10
-119.54999999999991
20
-7.4999999999998002
10
-119.54999999999991
20
-32.499999999999822
42
0.99999999999999989
10
-116.44999999999993
20
-32.499999999999815
0
CIRCLE
5
245
100
AcDbEntity
8
0
100
AcDbCircle
10
-52.999999999999886
20
-70.999999999999901
30
0
40
2.0999999999999996
210
0
220
0
230
1
0
CIRCLE
5
246
100
AcDbEntity
8
0
100
AcDbCircle
10
112.00000000115381
20
-140.00000000115381
30
0
40
2.1000000000000085
210
0
220
0
230
1
0
LWPOLYLINE
5
247
100
AcDbEntity
8
0
100
AcDbPolyline
90
4
70
1
43
0.0
10
-119.54999999999991
20
7.4999999999998508
42
0.99999999999999989
10
-116.44999999999993
20
7.4999999999998357
10
-116.44999999999993
20
32.499999999999851
42
0.99999999999999989
10
-119.54999999999991
20
32.499999999999858
0
CIRCLE
5
248
100
AcDbEntity
8
0
100
AcDbCircle
10
0
20
0
30
0
40
1.6000000000000003
210
0
220
0
230
1
0
LWPOLYLINE
5
249
100
AcDbEntity
8
0
100
AcDbPolyline
90
4
70
1
43
0.0
10
116.44999999999993
20
-32.499999999999837
42
0.99999999999999989
10
119.54999999999991
20
-32.499999999999851
10
119.54999999999991
20
-7.4999999999998357
42
0.99999999999999989
10
116.44999999999993
20
-7.4999999999998401
0
CIRCLE
5
250
100
AcDbEntity
8
0
100
AcDbCircle
10
52.999999999999886
20
-70.999999999999901
30
0
40
2.0999999999999996
210
0
220
0
230
1
0
CIRCLE
5
251
100
AcDbEntity
8
0
100
AcDbCircle
10
40.499999999999886
20
33.000000000000121
30
0
40
5
210
0
220
0
230
1
0
CIRCLE
5
252
100
AcDbEntity
8
0
100
AcDbCircle
10
-22.5
20
22.500000000000004
30
0
40
1.5500000000000025
210
0
220
0
230
1
0
CIRCLE
5
253
100
AcDbEntity
8
0
100
AcDbCircle
10
-40.499999999999886
20
-60.999999999999901
30
0
40
4.9999999999999956
210
0
220
0
230
1
0
CIRCLE
5
254
100
AcDbEntity
8
0
100
AcDbCircle
10
-77.999999999999915
20
-70.999999999999915
30
0
40
2.0999999999999996
210
0
220
0
230
1
0
CIRCLE
5
255
100
AcDbEntity
8
0
100
AcDbCircle
10
40.499999999999886
20
-60.999999999999901
30
0
40
5
210
0
220
0
230
1
0
CIRCLE
5
256
100
AcDbEntity
8
0
100
AcDbCircle
10
117.99999999999994
20
-39.999999999999837
30
0
40
1.6000000000000014
210
0
220
0
230
1
0
CIRCLE
5
257
100
AcDbEntity
8
0
100
AcDbCircle
10
15.250000000000002
20
15.250000000000002
30
0
40
1.5500000000000003
210
0
220
0
230
1
0
CIRCLE
5
258
100
AcDbEntity
8
0
100
AcDbCircle
10
77.999999999999915
20
-70.999999999999901
30
0
40
2.0999999999999908
210
0
220
0
230
1
0
LWPOLYLINE
5
259
100
AcDbEntity
8
0
100
AcDbPolyline
90
24
70
1
43
0.0
10
-117.00000000163955
20
45.50000000111946
42
0.41421356387129016
10
-122.00000000111939
20
40.49999997562356
10
-122.00000000000006
20
-40.49999997562356
42
0.41421356387128805
10
-117.00000000163959
20
-45.500000000000149
10
-98.999999999999659
20
-45.500000000000099
42
-0.41421356237310375
10
-95.999999999999815
20
-48.500000000000213
10
-95.999999999999829
20
-123.50000000000007
42
-0.41421356237308815
10
-98.999999999999886
20
-126.50000000000021
10
-116.99999999899531
20
-126.50000000000021
42
0.41421356237307838
10
-121.99999999999996
20
-131.50000000100462
10
-122.00000000000006
20
-140.00000000115384
42
0.41421356237309453
10
-112.00000000115381
20
-150.00000000000006
10
112.00000000115381
20
-150.00000000000009
42
0.41421356237309453
10
122.00000000000009
20
-140.00000000115384
10
122.0000000000001
20
-131.50000000100482
42
0.41421356237309398
10
116.99999999899531
20
-126.50000000000004
10
98.999999999999929
20
-126.50000000000004
42
-0.41421356237309159
10
95.999999999999957
20
-123.5000000000001
10
95.999999999999801
20
-48.500000000000092
42
-0.4142135623730942
10
98.999999999999744
20
-45.500000000000085
10
117.00000000163955
20
-45.500000000000099
42
0.41421356387129016
10
122.00000000000003
20
-40.499999975623538
10
122.00000000000003
20
40.499999975623538
42
0.41421356387129016
10
117.00000000163955
20
45.500000000000099
0
ENDSEC
0
SECTION
2
OBJECTS
0
DICTIONARY
5
C
100
AcDbDictionary
3
ACAD_GROUP
350
D
3
ACAD_MLINESTYLE
350
17
0
DICTIONARY
5
D
100
AcDbDictionary
0
DICTIONARY
5
1A
330
C
100
AcDbDictionary
0
DICTIONARY
5
17
100
AcDbDictionary
0
ENDSEC
0
EOF
