0
SECTION
2
HEADER
9
$INSUNITS
70
4
9
$ACADVER
1
AC1014
9
$HANDSEED
5
FFFF
0
ENDSEC
0
SECTION
2
TABLES
0
TABLE
2
VPORT
5
8
100
AcDbSymbolTable
0
ENDTAB
0
TABLE
2
LTYPE
5
5
100
AcDbSymbolTable
0
LTYPE
5
14
100
AcDbSymbolTableRecord
100
AcDbLinetypeTableRecord
2
BYBLOCK
70
0
0
LTYPE
5
15
100
AcDbSymbolTableRecord
100
AcDbLinetypeTableRecord
2
BYLAYER
70
0
0
LTYPE
5
16
100
AcDbSymbolTableRecord
100
AcDbLinetypeTableRecord
2
DASHED
70
0
3
Dashed __ __ __ __ __ __ __ __ __ __ __ __ __ _
72
65
73
2
40
0.75
49
0.5
74
0
49
-0.25
74
0
0
ENDTAB
0
TABLE
2
LAYER
5
2
100
AcDbSymbolTable
70
3
0
LAYER
5
50
100
AcDbSymbolTableRecord
100
AcDbLayerTableRecord
2
1
70
0
62
7
6
DASHED
0
LAYER
5
51
100
AcDbSymbolTableRecord
100
AcDbLayerTableRecord
2
0
70
0
62
7
6
CONTINUOUS
0
ENDTAB
0
TABLE
2
STYLE
5
3
100
AcDbSymbolTable
70
1
0
STYLE
5
11
100
AcDbSymbolTableRecord
100
AcDbTextStyleTableRecord
2
STANDARD
70
0
0
ENDTAB
0
TABLE
2
VIEW
5
6
100
AcDbSymbolTable
70
0
0
ENDTAB
0
TABLE
2
UCS
5
7
100
AcDbSymbolTable
70
0
0
ENDTAB
0
TABLE
2
APPID
5
9
100
AcDbSymbolTable
70
2
0
APPID
5
12
100
AcDbSymbolTableRecord
100
AcDbRegAppTableRecord
2
ACAD
70
0
0
ENDTAB
0
TABLE
2
DIMSTYLE
5
A
100
AcDbSymbolTable
70
1
0
ENDTAB
0
TABLE
2
BLOCK_RECORD
5
1
100
AcDbSymbolTable
70
1
0
BLOCK_RECORD
5
1F
100
AcDbSymbolTableRecord
100
AcDbBlockTableRecord
2
*MODEL_SPACE
0
BLOCK_RECORD
5
1B
100
AcDbSymbolTableRecord
100
AcDbBlockTableRecord
2
*PAPER_SPACE
0
ENDTAB
0
ENDSEC
0
SECTION
2
BLOCKS
0
BLOCK
5
20
100
AcDbEntity
100
AcDbBlockBegin
2
*MODEL_SPACE
0
ENDBLK
5
21
100
AcDbEntity
100
AcDbBlockEnd
0
BLOCK
5
1C
100
AcDbEntity
100
AcDbBlockBegin
2
*PAPER_SPACE
0
ENDBLK
5
1D
100
AcDbEntity
100
AcDbBlockEnd
0
ENDSEC
0
SECTION
2
ENTITIES
0
CIRCLE
5
100
100
AcDbEntity
8
0
100
AcDbCircle
10
-18.000000073235871
20
129.0007141461835
30
0
40
1.5999999999999948
210
0
220
-0
230
1
0
CIRCLE
5
101
100
AcDbEntity
8
0
100
AcDbCircle
10
-18.000000018735062
20
81.000714146183412
30
0
40
1.5999999999999992
210
0
220
-0
230
1
0
CIRCLE
5
102
100
AcDbEntity
8
0
100
AcDbCircle
10
17.999999926764133
20
129.00071416662126
30
0
40
1.5999999999999948
210
0
220
-0
230
1
0
CIRCLE
5
103
100
AcDbEntity
8
0
100
AcDbCircle
10
17.999999926764133
20
81.00071416662125
30
0
40
1.5999999999999992
210
0
220
-0
230
1
0
CIRCLE
5
104
100
AcDbEntity
8
0
100
AcDbCircle
10
65.073834518644787
20
123.45193833719721
30
0
40
11.000000000000005
210
0
220
0
230
1
0
CIRCLE
5
105
100
AcDbEntity
8
0
100
AcDbCircle
10
71.750000007474753
20
44.170000000000009
30
0
40
1.2999999999999989
210
0
220
0
230
1
0
CIRCLE
5
106
100
AcDbEntity
8
0
100
AcDbCircle
10
-24.500000000002053
20
-82.500000000006224
30
0
40
1.6000000000000103
210
0
220
0
230
1
0
CIRCLE
5
107
100
AcDbEntity
8
0
100
AcDbCircle
10
112.5
20
-145.99999996593743
30
0
40
1.6000000000000014
210
0
220
0
230
1
0
CIRCLE
5
108
100
AcDbEntity
8
0
100
AcDbCircle
10
-85.999999999999943
20
-58.500000000000142
30
0
40
2.0999999999999908
210
0
220
0
230
1
0
CIRCLE
5
109
100
AcDbEntity
8
0
100
AcDbCircle
10
30.499999903402653
20
30.499999903402653
30
0
40
2.0999999999999996
210
0
220
0
230
1
0
CIRCLE
5
110
100
AcDbEntity
8
0
100
AcDbCircle
10
92.250000007474767
20
44.170000000000016
30
0
40
1.3000000000000078
210
0
220
0
230
1
0
LWPOLYLINE
5
111
100
AcDbEntity
8
0
100
AcDbPolyline
90
4
70
1
43
0.0
10
-74.19582221970758
20
-44.999999902361509
42
0.99999999999999989
10
-74.195822206548002
20
-34.999999902361495
10
-89.195822206548002
20
-34.999999882622149
42
0.99999999999999989
10
-89.195822219707594
20
-44.999999882622163
0
LWPOLYLINE
5
112
100
AcDbEntity
8
0
100
AcDbPolyline
90
4
70
1
43
0.0
10
62.000000000000128
20
15.000000000000011
42
0.99999999999999989
10
57.99999999999973
20
15.000000000000004
10
57.999999999999616
20
-14.999999999999986
42
0.99999999999999989
10
61.999999999999922
20
-14.99999999999998
0
CIRCLE
5
113
100
AcDbEntity
8
0
100
AcDbCircle
10
24.50000000000248
20
-62.499999999992284
30
0
40
1.6000000000000014
210
0
220
0
230
1
0
CIRCLE
5
114
100
AcDbEntity
8
0
100
AcDbCircle
10
39.999999973506903
20
-139.99999999658343
30
0
40
2.1000000000000041
210
0
220
0
230
1
0
LWPOLYLINE
5
115
100
AcDbEntity
8
0
100
AcDbPolyline
90
4
70
1
43
0.0
10
-7.500000064975044
20
-42
42
0.99999999999999989
10
-7.5000000649750467
20
-52
10
7.4999999350249533
20
-52
42
0.99999999999999989
10
7.4999999350249515
20
-42.000000000000014
0
LWPOLYLINE
5
116
100
AcDbEntity
8
0
100
AcDbPolyline
90
4
70
1
43
0.0
10
-74.999999727864846
20
-147.55000010089984
42
0.99999993294477685
10
-74.999999731964792
20
-144.4500000286248
10
-104.99999973320865
20
-144.45000014125958
42
1.0000000670552276
10
-104.99999972662098
20
-147.55000007313419
0
CIRCLE
5
117
100
AcDbEntity
8
0
100
AcDbCircle
10
-30.499999949994777
20
30.499999950195608
30
0
40
2.0999999999999996
210
0
220
0
230
1
0
CIRCLE
5
118
100
AcDbEntity
8
0
100
AcDbCircle
10
-39.000000000140837
20
-125.99999999986771
30
0
40
1.6000000000000014
210
0
220
0
230
1
0
CIRCLE
5
119
100
AcDbEntity
8
0
100
AcDbCircle
10
35
20
4.9999999999999956
30
0
40
1.4999999999999991
210
0
220
0
230
1
0
CIRCLE
5
120
100
AcDbEntity
8
0
100
AcDbCircle
10
-23.558928034433421
20
105.24157243232908
30
0
40
1.6000000000000014
210
0
220
0
230
1
0
CIRCLE
5
121
100
AcDbEntity
8
0
100
AcDbCircle
10
-23.558928004490749
20
124.75842745593964
30
0
40
1.6000000000000014
210
0
220
0
230
1
0
CIRCLE
5
122
100
AcDbEntity
8
0
100
AcDbCircle
10
9.7584276076103151
20
91.441071840014672
30
0
40
1.6000000000000014
210
0
220
0
230
1
0
LWPOLYLINE
5
123
100
AcDbEntity
8
0
100
AcDbPolyline
90
4
70
1
43
0.0
10
-116.4499998230892
20
-131.50000019316695
42
1.0000000268634506
10
-119.54999986656287
20
-131.50000019246781
10
-119.54999980963592
20
-141.50000019851075
42
0.99999998709521587
10
-116.44999987187248
20
-141.50000018842468
0
CIRCLE
5
124
100
AcDbEntity
8
0
100
AcDbCircle
10
111.99999999662111
20
35.499999982562358
30
0
40
2.1000000000000085
210
0
220
0
230
1
0
CIRCLE
5
125
100
AcDbEntity
8
0
100
AcDbCircle
10
24.499999999995179
20
-140.50000000000651
30
0
40
1.6000000000000014
210
0
220
0
230
1
0
CIRCLE
5
126
100
AcDbEntity
8
0
100
AcDbCircle
10
-65.073834681102213
20
123.45193825156285
30
0
40
11.000000000000005
210
0
220
0
230
1
0
CIRCLE
5
127
100
AcDbEntity
8
0
100
AcDbCircle
10
-115.49000000000007
20
47.480000003784738
30
0
40
1.6000000000000014
210
0
220
0
230
1
0
CIRCLE
5
128
100
AcDbEntity
8
0
100
AcDbCircle
10
-90.999999884301587
20
-86.000000112212433
30
0
40
2.0999999999999908
210
0
220
0
230
1
0
CIRCLE
5
129
100
AcDbEntity
8
0
100
AcDbCircle
10
90.999999999999872
20
-85.999999989787526
30
0
40
2.0999999999999908
210
0
220
0
230
1
0
CIRCLE
5
130
100
AcDbEntity
8
0
100
AcDbCircle
10
24.499999999991921
20
-120.4999999999923
30
0
40
1.6000000000000103
210
0
220
0
230
1
0
CIRCLE
5
131
100
AcDbEntity
8
0
100
AcDbCircle
10
-112.0000000000001
20
35.500000154392225
30
0
40
2.1000000000000085
210
0
220
0
230
1
0
CIRCLE
5
132
100
AcDbEntity
8
0
100
AcDbCircle
10
-30.499999949994777
20
-30.500000032059816
30
0
40
2.0999999999999996
210
0
220
0
230
1
0
LWPOLYLINE
5
133
100
AcDbEntity
8
0
100
AcDbPolyline
90
4
70
1
43
0.0
10
-101.99999997982115
20
15.000000175827761
10
-102.00000002018058
20
-14.999999829893946
42
-1.0000000182501207
10
-106.00000002018103
20
-14.999999817277018
10
-105.99999997982131
20
15.000000188294308
42
-0.99999997892657599
0
CIRCLE
5
134
100
AcDbEntity
8
0
100
AcDbCircle
10
-85.999999999999943
20
58.500000000000142
30
0
40
2.0999999999999908
210
0
220
0
230
1
0
CIRCLE
5
135
100
AcDbEntity
8
0
100
AcDbCircle
10
39.999999971078552
20
139.99999999621534
30
0
40
2.1000000000000041
210
0
220
0
230
1
0
CIRCLE
5
136
100
AcDbEntity
8
0
100
AcDbCircle
10
-19.000000000004611
20
-77.000000000019554
30
0
40
1.6000000000000125
210
0
220
0
230
1
0
CIRCLE
5
137
100
AcDbEntity
8
0
100
AcDbCircle
10
37.779999971078546
20
-121.07000000000001
30
0
40
1.5999999999999925
210
0
220
0
230
1
0
CIRCLE
5
138
100
AcDbEntity
8
0
100
AcDbCircle
10
-37.780000134780927
20
-68.999999942038102
30
0
40
1.6000000000000014
210
0
220
0
230
1
0
CIRCLE
5
139
100
AcDbEntity
8
0
100
AcDbCircle
10
-92.249999949348961
20
44.170000121397031
30
0
40
1.3000000000000078
210
0
220
0
230
1
0
LWPOLYLINE
5
140
100
AcDbEntity
8
0
100
AcDbPolyline
90
8
70
1
43
0.0
10
74.499999999999915
20
40.200000000000003
42
0.41421356237309503
10
74.699999999999918
20
40.000000000000007
10
89.299999999999912
20
40.000000000000007
42
0.41421356237312101
10
89.499999999999915
20
40.200000000000017
10
89.499999999999915
20
48.139999999999993
42
0.41421356237313406
10
89.299999999999912
20
48.340000000000003
10
74.699999999999918
20
48.340000000000003
42
0.41421356237309503
10
74.499999999999915
20
48.140000000000008
0
CIRCLE
5
141
100
AcDbEntity
8
0
100
AcDbCircle
10
-24.499999999995055
20
-62.499999999983366
30
0
40
1.6000000000000014
210
0
220
0
230
1
0
LWPOLYLINE
5
142
100
AcDbEntity
8
0
100
AcDbPolyline
90
4
70
1
43
0.0
10
106.00000000000007
20
14.999999999999989
42
0.99999999999999989
10
101.99999999999969
20
15.000000000000009
10
101.99999999999991
20
-15
42
0.99999999999999989
10
105.99999999999983
20
-15.00000000000002
0
CIRCLE
5
143
100
AcDbEntity
8
0
100
AcDbCircle
10
-37.780000214666465
20
-121.06999994203812
30
0
40
1.5999999999999925
210
0
220
0
230
1
0
CIRCLE
5
144
100
AcDbEntity
8
0
100
AcDbCircle
10
39.00000000001608
20
-125.99999999999486
30
0
40
1.6000000000000014
210
0
220
0
230
1
0
CIRCLE
5
145
100
AcDbEntity
8
0
100
AcDbCircle
10
23.558928138051609
20
124.75842741979562
30
0
40
1.6000000000000014
210
0
220
0
230
1
0
CIRCLE
5
146
100
AcDbEntity
8
0
100
AcDbCircle
10
23.558928138051609
20
105.24157239618511
30
0
40
1.6000000000000014
210
0
220
0
230
1
0
CIRCLE
5
147
100
AcDbEntity
8
0
100
AcDbCircle
10
-24.500000000002373
20
-140.50000000000625
30
0
40
1.6000000000000014
210
0
220
0
230
1
0
CIRCLE
5
148
100
AcDbEntity
8
0
100
AcDbCircle
10
65.073834518644787
20
-123.45193833719721
30
0
40
11.000000000000005
210
0
220
0
230
1
0
LWPOLYLINE
5
149
100
AcDbEntity
8
0
100
AcDbPolyline
90
8
70
1
43
0.0
10
-89.299999936386527
20
48.340000117514947
42
0.41421356237319906
10
-89.499999936649772
20
48.140000117778129
10
-89.499999947098445
20
40.20000011777816
42
0.41421356237308204
10
-89.299999947361613
20
40.000000117514944
10
-74.699999947361647
20
40.000000098301982
42
0.41421356237310802
10
-74.499999947098459
20
40.200000098038785
10
-74.499999936649758
20
48.140000098038783
42
0.41421356237309503
10
-74.699999936386561
20
48.340000098301978
0
CIRCLE
5
150
100
AcDbEntity
8
0
100
AcDbCircle
10
-39.999999811654007
20
-140.00000005039655
30
0
40
2.1000000000000041
210
0
220
0
230
1
0
CIRCLE
5
151
100
AcDbEntity
8
0
100
AcDbCircle
10
24.499999999995481
20
-82.500000000006509
30
0
40
1.6000000000000103
210
0
220
0
230
1
0
CIRCLE
5
152
100
AcDbEntity
8
0
100
AcDbCircle
10
-112.00000011230672
20
-35.499999802084943
30
0
40
2.1000000000000085
210
0
220
0
230
1
0
CIRCLE
5
153
100
AcDbEntity
8
0
100
AcDbCircle
10
4.9999999999999964
20
-61.500000000004185
30
0
40
1.499999999999998
210
0
220
0
230
1
0
CIRCLE
5
154
100
AcDbEntity
8
0
100
AcDbCircle
10
-34.999998676743786
20
-4.9999986815780604
30
0
40
1.4999999999999991
210
0
220
0
230
1
0
CIRCLE
5
155
100
AcDbEntity
8
0
100
AcDbCircle
10
-9.7584274713274013
20
91.441071854986006
30
0
40
1.6000000000000025
210
0
220
0
230
1
0
CIRCLE
5
156
100
AcDbEntity
8
0
100
AcDbCircle
10
37.779999971078546
20
-69
30
0
40
1.6000000000000014
210
0
220
0
230
1
0
LWPOLYLINE
5
157
100
AcDbEntity
8
0
100
AcDbPolyline
90
4
70
1
43
0.0
10
-76.999999989909952
20
7.5000001327327173
42
0.99999997892657599
10
-86.999999989909966
20
7.5000001400710694
10
-87.000000010089877
20
-7.4999998500292628
42
0.99999999999999989
10
-77.000000010089892
20
-7.4999999293368456
0
CIRCLE
5
158
100
AcDbEntity
8
0
100
AcDbCircle
10
-35
20
5
30
0
40
1.4999999999999991
210
0
220
0
230
1
0
CIRCLE
5
159
100
AcDbEntity
8
0
100
AcDbCircle
10
-19.000000000049326
20
-125.99999999993975
30
0
40
1.6000000000000103
210
0
220
0
230
1
0
CIRCLE
5
160
100
AcDbEntity
8
0
100
AcDbCircle
10
-43.10000000000008
20
93.200000003784737
30
0
40
1.5999999999999925
210
0
220
0
230
1
0
CIRCLE
5
161
100
AcDbEntity
8
0
100
AcDbCircle
10
-5.0000000000000018
20
34.999999995165723
30
0
40
1.4999999999999987
210
0
220
0
230
1
0
CIRCLE
5
162
100
AcDbEntity
8
0
100
AcDbCircle
10
-85.999999999999801
20
-113.4999999795758
30
0
40
2.0999999999999908
210
0
220
0
230
1
0
CIRCLE
5
163
100
AcDbEntity
8
0
100
AcDbCircle
10
86.000000031907462
20
58.499999833125855
30
0
40
2.0999999999999908
210
0
220
0
230
1
0
CIRCLE
5
164
100
AcDbEntity
8
0
100
AcDbCircle
10
-43.10000000000008
20
47.480000003784738
30
0
40
1.5999999999999925
210
0
220
0
230
1
0
CIRCLE
5
165
100
AcDbEntity
8
0
100
AcDbCircle
10
-5.0000000000000018
20
-34.999999995165723
30
0
40
1.4999999999999987
210
0
220
0
230
1
0
LWPOLYLINE
5
166
100
AcDbEntity
8
0
100
AcDbPolyline
90
4
70
1
43
0.0
10
76.999999999999915
20
-7.4999999999999991
42
0.99999999999999989
10
87.000000029899269
20
-7.5000000000000009
10
86.999999999999915
20
7.4999999999999991
42
0.99999999999999989
10
76.999999999999915
20
7.5000000000000009
0
CIRCLE
5
167
100
AcDbEntity
8
0
100
AcDbCircle
10
-67.499999803582099
20
-146.00000007377841
30
0
40
1.5999999999999925
210
0
220
0
230
1
0
CIRCLE
5
168
100
AcDbEntity
8
0
100
AcDbCircle
10
-71.749999949348947
20
44.170000094419912
30
0
40
1.2999999999999989
210
0
220
0
230
1
0
CIRCLE
5
169
100
AcDbEntity
8
0
100
AcDbCircle
10
18.999999999993197
20
-77.000000000004178
30
0
40
1.6000000000000125
210
0
220
0
230
1
0
LWPOLYLINE
5
170
100
AcDbEntity
8
0
100
AcDbPolyline
90
4
70
1
43
0.0
10
-7.4999999884565849
20
71.00000024789712
42
0.99999999999999989
10
-7.4999999865642151
20
61.000000243864314
10
7.500000094050506
20
61.000000246702896
42
0.99999999999999989
10
7.5000000115434151
20
71.000000250735667
0
CIRCLE
5
171
100
AcDbEntity
8
0
100
AcDbCircle
10
30.499999991027295
20
-30.499999991027295
30
0
40
2.0999999999999996
210
0
220
0
230
1
0
CIRCLE
5
172
100
AcDbEntity
8
0
100
AcDbCircle
10
4.9999999999999982
20
-35
30
0
40
1.4999999999999991
210
0
220
0
230
1
0
CIRCLE
5
173
100
AcDbEntity
8
0
100
AcDbCircle
10
34.99999999516573
20
-5.0000000000000036
30
0
40
1.4999999999999991
210
0
220
0
230
1
0
CIRCLE
5
174
100
AcDbEntity
8
0
100
AcDbCircle
10
-24.500000000005624
20
-120.49999999998342
30
0
40
1.6000000000000103
210
0
220
0
230
1
0
CIRCLE
5
175
100
AcDbEntity
8
0
100
AcDbCircle
10
18.999999999993197
20
-126.00000000000172
30
0
40
1.6000000000000125
210
0
220
0
230
1
0
CIRCLE
5
176
100
AcDbEntity
8
0
100
AcDbCircle
10
-22.499999803582025
20
-146.00000001607711
30
0
40
1.6000000000000014
210
0
220
0
230
1
0
LWPOLYLINE
5
177
100
AcDbEntity
8
0
100
AcDbPolyline
90
4
70
1
43
0.0
10
89.195822160489513
20
-45
42
0.99999999999999989
10
89.195822160489513
20
-34.999999999999993
10
74.195822160489513
20
-34.999999999999993
42
0.99999999999999989
10
74.195822160489527
20
-44.999999999999986
0
CIRCLE
5
178
100
AcDbEntity
8
0
100
AcDbCircle
10
-112.499999803582
20
-146.00000011728693
30
0
40
1.6000000000000014
210
0
220
0
230
1
0
LWPOLYLINE
5
179
100
AcDbEntity
8
0
100
AcDbPolyline
90
4
70
1
43
0.0
10
-57.999999979819805
20
15.000000099980502
42
0.9999999833399954
10
-61.99999997982043
20
15.000000103605801
10
-62.000000020179854
20
-14.99999989312429
42
1.0000000516191379
10
-58.000000020179783
20
-14.999999902561234
0
CIRCLE
5
180
100
AcDbEntity
8
0
100
AcDbCircle
10
-43.10000000000008
20
113.52000000378474
30
0
40
1.5999999999999925
210
0
220
0
230
1
0
CIRCLE
5
181
100
AcDbEntity
8
0
100
AcDbCircle
10
-39.999999811654007
20
140.00000005758312
30
0
40
2.1000000000000041
210
0
220
0
230
1
0
CIRCLE
5
182
100
AcDbEntity
8
0
100
AcDbCircle
10
9.758427594345692
20
138.55892798146044
30
0
40
1.6000000000000025
210
0
220
0
230
1
0
CIRCLE
5
183
100
AcDbEntity
8
0
100
AcDbCircle
10
-85.999999999999815
20
113.49999999243133
30
0
40
2.0999999999999908
210
0
220
0
230
1
0
CIRCLE
5
184
100
AcDbEntity
8
0
100
AcDbCircle
10
-90.999999884301587
20
86.000000129399311
30
0
40
2.0999999999999908
210
0
220
0
230
1
0
CIRCLE
5
185
100
AcDbEntity
8
0
100
AcDbCircle
10
22.5
20
-145.99999998580722
30
0
40
1.6000000000000014
210
0
220
0
230
1
0
CIRCLE
5
186
100
AcDbEntity
8
0
100
AcDbCircle
10
-43.10000000000008
20
-109.99999999621525
30
0
40
1.6000000000000014
210
0
220
0
230
1
0
CIRCLE
5
187
100
AcDbEntity
8
0
100
AcDbCircle
10
-39.000000000140837
20
-76.999999999870198
30
0
40
1.6000000000000014
210
0
220
0
230
1
0
CIRCLE
5
188
100
AcDbEntity
8
0
100
AcDbCircle
10
4.9999999999999982
20
35
30
0
40
1.4999999999999991
210
0
220
0
230
1
0
CIRCLE
5
189
100
AcDbEntity
8
0
100
AcDbCircle
10
39.000000000007418
20
-76.9999999999973
30
0
40
1.6000000000000014
210
0
220
0
230
1
0
CIRCLE
5
190
100
AcDbEntity
8
0
100
AcDbCircle
10
86.000000078701817
20
-113.50000009527321
30
0
40
2.0999999999999908
210
0
220
0
230
1
0
CIRCLE
5
191
100
AcDbEntity
8
0
100
AcDbCircle
10
86.000000078701675
20
-58.499999884301879
30
0
40
2.0999999999999908
210
0
220
0
230
1
0
LWPOLYLINE
5
192
100
AcDbEntity
8
0
100
AcDbPolyline
90
4
70
1
43
0.0
10
75
20
-144.4500000000001
42
0.99999999999999989
10
74.999999999999986
20
-147.5499998993952
10
105
20
-147.55000000000013
42
0.99999999999999989
10
105
20
-144.44999993187471
0
CIRCLE
5
193
100
AcDbEntity
8
0
100
AcDbCircle
10
86.000000078701802
20
113.50000014644922
30
0
40
2.0999999999999908
210
0
220
0
230
1
0
CIRCLE
5
194
100
AcDbEntity
8
0
100
AcDbCircle
10
-65.073834681102213
20
-123.45193825156285
30
0
40
11.000000000000005
210
0
220
0
230
1
0
CIRCLE
5
195
100
AcDbEntity
8
0
100
AcDbCircle
10
-9.7584274713274013
20
138.55892796833214
30
0
40
1.6000000000000025
210
0
220
0
230
1
0
LWPOLYLINE
5
196
100
AcDbEntity
8
0
100
AcDbPolyline
90
4
70
1
43
0.0
10
30
20
-144.44999999999996
42
0.99999999999999989
10
30.00000000000016
20
-147.5499999081816
10
60.000000000000078
20
-147.54999999999993
42
0.99999999999999989
10
60.000000000000064
20
-144.44999996593756
0
CIRCLE
5
197
100
AcDbEntity
8
0
100
AcDbCircle
10
-5.0000000000000036
20
-61.499999992333201
30
0
40
1.4999999999999987
210
0
220
0
230
1
0
LWPOLYLINE
5
198
100
AcDbEntity
8
0
100
AcDbPolyline
90
4
70
1
43
0.0
10
-29.999999727864861
20
-147.55000004035978
42
0.99999993294477685
10
-29.999999731964913
20
-144.44999995987354
10
-59.999999733208725
20
-144.45000008071966
42
1.0000000670552276
10
-59.99999972786491
20
-147.55000008071966
0
CIRCLE
5
199
100
AcDbEntity
8
0
100
AcDbCircle
10
111.8399999999999
20
47.480000003784738
30
0
40
1.6000000000000014
210
0
220
0
230
1
0
LWPOLYLINE
5
200
100
AcDbEntity
8
0
100
AcDbPolyline
90
4
70
1
43
0.0
10
116.44999999999993
20
-141.49999999243025
42
0.99999999999999989
10
119.54999999999991
20
-141.49999999243028
10
119.54999999999991
20
-131.49999999243025
42
0.99999999999999989
10
116.44999999999993
20
-131.49999999243028
0
CIRCLE
5
201
100
AcDbEntity
8
0
100
AcDbCircle
10
111.9999999999999
20
-35.499999973914811
30
0
40
2.1000000000000085
210
0
220
0
230
1
0
LWPOLYLINE
5
202
100
AcDbEntity
8
0
100
AcDbPolyline
90
4
70
1
43
0.0
10
-14.999999803582018
20
-144.44999999999996
42
0.99999999999999989
10
-14.999999803582005
20
-147.54999991345335
10
14.999999999999998
20
-147.54999999999995
42
0.99999999999999989
10
14.999999999999998
20
-144.44999991049113
0
CIRCLE
5
203
100
AcDbEntity
8
0
100
AcDbCircle
10
-115.49000000000008
20
-109.99999999621525
30
0
40
1.6000000000000014
210
0
220
0
230
1
0
CIRCLE
5
204
100
AcDbEntity
8
0
100
AcDbCircle
10
91.000000014858969
20
85.99999998978754
30
0
40
2.0999999999999908
210
0
220
0
230
1
0
CIRCLE
5
205
100
AcDbEntity
8
0
100
AcDbCircle
10
88.979999999999905
20
-109.99999999621525
30
0
40
1.5999999999999837
210
0
220
0
230
1
0
CIRCLE
5
206
100
AcDbEntity
8
0
100
AcDbCircle
10
67.500000000000071
20
-145.99999998296875
30
0
40
1.5999999999999925
210
0
220
0
230
1
0
CIRCLE
5
207
100
AcDbEntity
8
0
100
AcDbCircle
10
111.8399999999999
20
93.200000003784737
30
0
40
1.6000000000000014
210
0
220
0
230
1
0
CIRCLE
5
208
100
AcDbEntity
8
0
100
AcDbCircle
10
-22.499999969730105
20
-22.500000030269895
30
0
40
1.5500000000000025
210
0
220
0
230
1
0
LWPOLYLINE
5
209
100
AcDbEntity
8
0
100
AcDbPolyline
90
4
70
1
43
0.0
10
30
20
147.54999999999993
42
0.99999999999999989
10
30.00000000000016
20
144.44999990818164
10
60.000000000000107
20
144.45000000000002
42
0.99999999999999989
10
60.000000000000078
20
147.54999999999993
0
CIRCLE
5
210
100
AcDbEntity
8
0
100
AcDbCircle
10
-52.999999864121691
20
101.00000008131225
30
0
40
2.0999999999999996
210
0
220
0
230
1
0
CIRCLE
5
211
100
AcDbEntity
8
0
100
AcDbCircle
10
-45.500000070629639
20
-52.499999930194015
30
0
40
1.4999999999999947
210
0
220
0
230
1
0
CIRCLE
5
212
100
AcDbEntity
8
0
100
AcDbCircle
10
5.9999999710785463
20
76.499999999242675
30
0
40
1.4999999999999991
210
0
220
0
230
1
0
LWPOLYLINE
5
213
100
AcDbEntity
8
0
100
AcDbPolyline
90
4
70
1
43
0.0
10
-74.999999733208654
20
144.45000010089979
42
0.99999993253212538
10
-74.99999972662097
20
147.55000002862485
10
-104.99999972786486
20
147.55000014125966
42
1.0000000670552276
10
-104.99999973196478
20
144.45000008031661
0
CIRCLE
5
214
100
AcDbEntity
8
0
100
AcDbCircle
10
-52.999999864121691
20
-101.00000007130232
30
0
40
2.0999999999999996
210
0
220
0
230
1
0
CIRCLE
5
215
100
AcDbEntity
8
0
100
AcDbCircle
10
111.99999999807561
20
-139.99999999770696
30
0
40
2.1000000000000085
210
0
220
0
230
1
0
CIRCLE
5
216
100
AcDbEntity
8
0
100
AcDbCircle
10
-77.999999904481584
20
-71.000000104935538
30
0
40
2.0999999999999996
210
0
220
0
230
1
0
CIRCLE
5
217
100
AcDbEntity
8
0
100
AcDbCircle
10
14.000714331950617
20
129.00071416662126
30
0
40
1.2999999999999989
210
0
220
0
230
1
0
CIRCLE
5
218
100
AcDbEntity
8
0
100
AcDbCircle
10
35.499999999999886
20
-52.499999999999893
30
0
40
1.4999999999999991
210
0
220
0
230
1
0
CIRCLE
5
219
100
AcDbEntity
8
0
100
AcDbCircle
10
77.999999999999915
20
100.99999999999991
30
0
40
2.0999999999999908
210
0
220
0
230
1
0
CIRCLE
5
220
100
AcDbEntity
8
0
100
AcDbCircle
10
52.999999999999886
20
-70.999999999999901
30
0
40
2.0999999999999996
210
0
220
0
230
1
0
LWPOLYLINE
5
221
100
AcDbEntity
8
0
100
AcDbPolyline
90
4
70
1
43
0.0
10
-59.99999972786491
20
147.55000008071963
42
1.0000000670552276
10
-59.999999731964841
20
144.45000001156552
10
-29.999999733208639
20
144.45000004035981
42
0.99999993294477685
10
-29.999999727864861
20
147.55000004035978
0
CIRCLE
5
222
100
AcDbEntity
8
0
100
AcDbCircle
10
-77.999999864121733
20
101.00000011966713
30
0
40
2.0999999999999996
210
0
220
0
230
1
0
CIRCLE
5
223
100
AcDbEntity
8
0
100
AcDbCircle
10
22.5
20
145.9999999545301
30
0
40
1.6000000000000014
210
0
220
0
230
1
0
CIRCLE
5
224
100
AcDbEntity
8
0
100
AcDbCircle
10
20.859650131558244
20
135.85964996820647
30
0
40
1.6000000000000014
210
0
220
0
230
1
0
CIRCLE
5
225
100
AcDbEntity
8
0
100
AcDbCircle
10
14.000714296109692
20
100.99928560611747
30
0
40
1.3000000000000034
210
0
220
0
230
1
0
CIRCLE
5
226
100
AcDbEntity
8
0
100
AcDbCircle
10
-52.999999904481555
20
-71.00000007130231
30
0
40
2.0999999999999996
210
0
220
0
230
1
0
CIRCLE
5
227
100
AcDbEntity
8
0
100
AcDbCircle
10
-15.249999979483741
20
-15.250000020516261
30
0
40
1.5500000000000003
210
0
220
0
230
1
0
CIRCLE
5
228
100
AcDbEntity
8
0
100
AcDbCircle
10
-22.499999969730105
20
22.500000034519392
30
0
40
1.5500000000000025
210
0
220
0
230
1
0
CIRCLE
5
229
100
AcDbEntity
8
0
100
AcDbCircle
10
-22.499999803582025
20
145.99999998904951
30
0
40
1.6000000000000014
210
0
220
0
230
1
0
LWPOLYLINE
5
230
100
AcDbEntity
8
0
100
AcDbPolyline
90
4
70
1
43
0.0
10
-7.9999998806616146
20
-80.99999999058754
42
0.99999999999999989
10
-8.0000001193383579
20
-91.000000001842182
10
7.9999999963598691
20
-91.000000391294336
42
0.9999999764391958
10
8.0000002392482106
20
-80.999999607191015
0
CIRCLE
5
231
100
AcDbEntity
8
0
100
AcDbCircle
10
-35.500000070629632
20
-52.499999945535968
30
0
40
1.4999999999999991
210
0
220
0
230
1
0
CIRCLE
5
232
100
AcDbEntity
8
0
100
AcDbCircle
10
-14.000714191881256
20
129.00071418810109
30
0
40
1.2999999999999989
210
0
220
0
230
1
0
LWPOLYLINE
5
233
100
AcDbEntity
8
0
100
AcDbPolyline
90
4
70
1
43
0.0
10
-14.999999803582023
20
147.54999999999993
42
0.99999999999999989
10
-14.999999803582035
20
144.44999991345341
10
15.000000000000002
20
144.44999999999993
42
0.99999992150326567
10
15.000000000000002
20
147.54999999999995
0
CIRCLE
5
234
100
AcDbEntity
8
0
100
AcDbCircle
10
-112.499999803582
20
146.00000012229464
30
0
40
1.6000000000000014
210
0
220
0
230
1
0
CIRCLE
5
235
100
AcDbEntity
8
0
100
AcDbCircle
10
-15.249999979483741
20
15.250000023396478
30
0
40
1.5500000000000003
210
0
220
0
230
1
0
CIRCLE
5
236
100
AcDbEntity
8
0
100
AcDbCircle
10
117.99999998769954
20
0
30
0
40
1.6000000000000014
210
0
220
0
230
1
0
CIRCLE
5
237
100
AcDbEntity
8
0
100
AcDbCircle
10
52.999999999999886
20
100.99999999999991
30
0
40
2.0999999999999996
210
0
220
0
230
1
0
CIRCLE
5
238
100
AcDbEntity
8
0
100
AcDbCircle
10
77.999999999999915
20
-100.99999999999991
30
0
40
2.0999999999999908
210
0
220
0
230
1
0
LWPOLYLINE
5
239
100
AcDbEntity
8
0
100
AcDbPolyline
90
4
70
1
43
0.0
10
119.54999999999991
20
141.49999999243025
42
0.99999999999999989
10
116.44999999999993
20
141.49999999243028
10
116.44999999999993
20
131.49999999243025
42
0.99999999999999989
10
119.54999999999991
20
131.49999999243025
0
LWPOLYLINE
5
240
100
AcDbEntity
8
0
100
AcDbPolyline
90
4
70
1
43
0.0
10
116.44999999999993
20
-32.499999999999837
42
0.99999999999999989
10
119.54999999999987
20
-32.500000000000163
10
119.54999999999991
20
-7.4999999999998357
42
0.99999999999999989
10
116.44999998107625
20
-7.5000000000001599
0
CIRCLE
5
241
100
AcDbEntity
8
0
100
AcDbCircle
10
-118.00000012204916
20
-39.999999818964966
30
0
40
1.6000000000000014
210
0
220
0
230
1
0
LWPOLYLINE
5
242
100
AcDbEntity
8
0
100
AcDbPolyline
90
4
70
1
43
0.0
10
-116.44999980963593
20
141.50000019316695
42
0.9999999925494194
10
-119.54999987187247
20
141.5000001864274
10
-119.54999982308919
20
131.50000019851075
42
1.0000000129047841
10
-116.44999986656288
20
131.50000018842465
0
CIRCLE
5
243
100
AcDbEntity
8
0
100
AcDbCircle
10
-117.99999999931356
20
40.000000181035027
30
0
40
1.6000000000000014
210
0
220
0
230
1
0
CIRCLE
5
244
100
AcDbEntity
8
0
100
AcDbCircle
10
-77.999999864121733
20
-101.00000010493551
30
0
40
2.0999999999999996
210
0
220
0
230
1
0
CIRCLE
5
245
100
AcDbEntity
8
0
100
AcDbCircle
10
-67.499999803582099
20
146.00000005764906
30
0
40
1.5999999999999925
210
0
220
0
230
1
0
CIRCLE
5
246
100
AcDbEntity
8
0
100
AcDbCircle
10
7.4636718047539927e-08
20
135.00000020092057
30
0
40
5
210
0
220
0
230
1
0
CIRCLE
5
247
100
AcDbEntity
8
0
100
AcDbCircle
10
40.499999999999886
20
-60.999999999999901
30
0
40
5
210
0
220
0
230
1
0
CIRCLE
5
248
100
AcDbEntity
8
0
100
AcDbCircle
10
-111.99999986271581
20
140.00000015216852
30
0
40
2.1000000000000085
210
0
220
0
230
1
0
CIRCLE
5
249
100
AcDbEntity
8
0
100
AcDbCircle
10
20.85965009139867
20
94.140349899962317
30
0
40
1.6000000000000014
210
0
220
0
230
1
0
LWPOLYLINE
5
250
100
AcDbEntity
8
0
100
AcDbPolyline
90
4
70
1
43
0.0
10
74.999999999999986
20
147.5500000000001
42
0.99999999999999989
10
75.000000000000014
20
144.44999989939521
10
105
20
144.45000000000016
42
0.99999999999999989
10
105
20
147.55000000000013
0
CIRCLE
5
251
100
AcDbEntity
8
0
100
AcDbCircle
10
-77.999999904481584
20
71.000000119667121
30
0
40
2.0999999999999996
210
0
220
0
230
1
0
CIRCLE
5
252
100
AcDbEntity
8
0
100
AcDbCircle
10
111.99999999807562
20
140.00000000149171
30
0
40
2.1000000000000085
210
0
220
0
230
1
0
CIRCLE
5
253
100
AcDbEntity
8
0
100
AcDbCircle
10
-20.85964993668588
20
135.85965000836603
30
0
40
1.6000000000000014
210
0
220
0
230
1
0
CIRCLE
5
254
100
AcDbEntity
8
0
100
AcDbCircle
10
52.999999999999886
20
70.999999999999901
30
0
40
2.0999999999999996
210
0
220
0
230
1
0
CIRCLE
5
255
100
AcDbEntity
8
0
100
AcDbCircle
10
77.999999999999915
20
70.999999999999901
30
0
40
2.0999999999999908
210
0
220
0
230
1
0
CIRCLE
5
256
100
AcDbEntity
8
0
100
AcDbCircle
10
118.00000000283845
20
-40
30
0
40
1.6000000000000014
210
0
220
0
230
1
0
CIRCLE
5
257
100
AcDbEntity
8
0
100
AcDbCircle
10
22.5
20
-22.5
30
0
40
1.5500000000000025
210
0
220
0
230
1
0
CIRCLE
5
258
100
AcDbEntity
8
0
100
AcDbCircle
10
-14.000714198999988
20
100.99928562759729
30
0
40
1.3000000000000034
210
0
220
0
230
1
0
LWPOLYLINE
5
259
100
AcDbEntity
8
0
100
AcDbPolyline
90
4
70
1
43
0.0
10
-119.54999998990996
20
7.5000002060804754
42
1.0000000149011612
10
-116.4500000838391
20
7.5000001886533996
10
-116.44999995627674
20
32.500000200736693
42
0.9999999925494194
10
-119.55000005968617
20
32.500000201338217
0
CIRCLE
5
260
100
AcDbEntity
8
0
100
AcDbCircle
10
-40.499999917934844
20
-61.000000054485703
30
0
40
4.9999999999999956
210
0
220
0
230
1
0
LWPOLYLINE
5
261
100
AcDbEntity
8
0
100
AcDbPolyline
90
4
70
1
43
0.0
10
119.54999999999991
20
32.499999999999837
42
0.99999999999999989
10
116.44999999999985
20
32.500000000000163
10
116.44999999999993
20
7.4999999999998357
42
0.99999999999999989
10
119.54999999999991
20
7.4999999999998401
0
CIRCLE
5
262
100
AcDbEntity
8
0
100
AcDbCircle
10
52.999999999999886
20
-100.99999999999991
30
0
40
2.0999999999999996
210
0
220
0
230
1
0
CIRCLE
5
263
100
AcDbEntity
8
0
100
AcDbCircle
10
112.5
20
145.99999994969767
30
0
40
1.6000000000000014
210
0
220
0
230
1
0
CIRCLE
5
264
100
AcDbEntity
8
0
100
AcDbCircle
10
77.999999999999915
20
-70.999999999999901
30
0
40
2.0999999999999908
210
0
220
0
230
1
0
CIRCLE
5
265
100
AcDbEntity
8
0
100
AcDbCircle
10
22.5
20
22.5
30
0
40
1.5500000000000025
210
0
220
0
230
1
0
CIRCLE
5
266
100
AcDbEntity
8
0
100
AcDbCircle
10
15.250000000000002
20
-15.250000000000002
30
0
40
1.5500000000000003
210
0
220
0
230
1
0
CIRCLE
5
267
100
AcDbEntity
8
0
100
AcDbCircle
10
118.00000000283845
20
40
30
0
40
1.6000000000000014
210
0
220
0
230
1
0
CIRCLE
5
268
100
AcDbEntity
8
0
100
AcDbCircle
10
-52.999999904481555
20
71.000000081312237
30
0
40
2.0999999999999996
210
0
220
0
230
1
0
CIRCLE
5
269
100
AcDbEntity
8
0
100
AcDbCircle
10
-118.00000004554244
20
1.8103503355868516e-07
30
0
40
1.6000000000000014
210
0
220
0
230
1
0
CIRCLE
5
270
100
AcDbEntity
8
0
100
AcDbCircle
10
15.250000000000002
20
15.250000000000002
30
0
40
1.5500000000000003
210
0
220
0
230
1
0
CIRCLE
5
271
100
AcDbEntity
8
0
100
AcDbCircle
10
-20.859649976845454
20
94.140349940121908
30
0
40
1.6000000000000014
210
0
220
0
230
1
0
CIRCLE
5
272
100
AcDbEntity
8
0
100
AcDbCircle
10
0
20
0
30
0
40
5
210
0
220
0
230
1
0
CIRCLE
5
273
100
AcDbEntity
8
0
100
AcDbCircle
10
45.499999999999886
20
-52.499999999999893
30
0
40
1.4999999999999947
210
0
220
0
230
1
0
LWPOLYLINE
5
274
100
AcDbEntity
8
0
100
AcDbPolyline
90
4
70
1
43
0.0
10
-116.45000001008988
20
-7.4999997992633105
42
0.99999998509883881
10
-119.55000010968502
20
-7.4999997986617872
10
-119.55000004372309
20
-32.499999793919521
42
1.0000000129047841
10
-116.45000004372309
20
-32.499999799263307
0
CIRCLE
5
275
100
AcDbEntity
8
0
100
AcDbCircle
10
67.500000000000071
20
145.99999995409087
30
0
40
1.5999999999999925
210
0
220
0
230
1
0
CIRCLE
5
276
100
AcDbEntity
8
0
100
AcDbCircle
10
-5.9999999115555314
20
76.500000008447842
30
0
40
1.4999999999999991
210
0
220
0
230
1
0
CIRCLE
5
277
100
AcDbEntity
8
0
100
AcDbCircle
10
-111.99999983646771
20
-140.00000014838378
30
0
40
2.1000000000000085
210
0
220
0
230
1
0
LWPOLYLINE
5
278
100
AcDbEntity
8
0
100
AcDbPolyline
90
15
70
1
43
0.0
10
121.9999999969219
20
-139.99999999358431
10
121.99999999692169
20
139.99999999358431
42
0.41421356247316626
10
111.99999999465875
20
149.99999999243062
10
1.7382554062805866e-07
20
149.99999995004171
10
-111.99999982237237
20
150.00000020092057
42
0.41421356132422554
10
-121.99999987663733
20
140.00000021998343
10
-121.99999985301812
20
131.50000020373884
10
-121.99999999416882
20
40.500000151122464
10
-122.00000005630372
20
-1.8338711882393e-07
10
-122.00000007895514
20
-40.50000015112245
10
-121.99999985301812
20
-131.50000020373884
10
-121.99999983997725
20
-140.00000021998343
42
0.41421356068883169
10
-111.99999982237239
20
-150.00000015189332
10
-1.539177674203529e-09
20
-150.00000000755517
10
111.99999999429087
20
-149.99999999243062
42
0.41421356260469738
0
ENDSEC
0
SECTION
2
OBJECTS
0
DICTIONARY
5
C
100
AcDbDictionary
3
ACAD_GROUP
350
D
3
ACAD_MLINESTYLE
350
17
0
DICTIONARY
5
D
100
AcDbDictionary
0
DICTIONARY
5
1A
330
C
100
AcDbDictionary
0
DICTIONARY
5
17
100
AcDbDictionary
0
ENDSEC
0
EOF
